<?xml version="1.0" standalone="no"?>
<!DOCTYPE svg PUBLIC "-//W3C//DTD SVG 20010904//EN"
 "http://www.w3.org/TR/2001/REC-SVG-20010904/DTD/svg10.dtd">
<svg version="1.0" xmlns="http://www.w3.org/2000/svg"
 width="1024.000000pt" height="1024.000000pt" viewBox="0 0 1024.000000 1024.000000"
 preserveAspectRatio="xMidYMid meet">
<metadata>
Created by potrace 1.11, written by Peter Selinger 2001-2013
</metadata>
<g transform="translate(0.000000,1024.000000) scale(0.100000,-0.100000)"
fill="#000000" stroke="none">
<path d="M2240 5600 l0 -320 -320 0 -320 0 0 -640 0 -640 -320 0 -320 0 0
-960 0 -960 320 0 320 0 0 -320 0 -320 3520 0 3520 0 0 240 0 240 320 0 320 0
0 1040 0 1040 -320 0 -320 0 0 640 0 640 -320 0 -320 0 0 320 0 320 -2880 0
-2880 0 0 -320z m2560 -1280 l0 -960 -960 0 -960 0 0 960 0 960 960 0 960 0 0
-960z m2560 0 l0 -960 -960 0 -960 0 0 960 0 960 960 0 960 0 0 -960z"/>
<path d="M3520 4320 l0 -320 320 0 320 0 0 320 0 320 -320 0 -320 0 0 -320z"/>
<path d="M6080 4320 l0 -320 320 0 320 0 0 320 0 320 -320 0 -320 0 0 -320z"/>
</g>
</svg>
